<svg xmlns="http://www.w3.org/2000/svg" viewBox="0 0 200 200">
  <defs>
    <pattern id="randomWavyPattern" x="0" y="0" width="200" height="200" patternUnits="userSpaceOnUse">
      <rect x="0" y="0" width="200" height="200" fill="#f5f5f5"/>
      <path d="M0 30 Q 40 0, 80 30 T 160 30 T 200 30" fill="none" stroke="#ff7f50" stroke-width="6"/>
      <path d="M20 70 Q 70 40, 120 70 T 220 70" fill="none" stroke="#4169e1" stroke-width="5"/>
      <path d="M0 110 Q 60 70, 120 110 T 240 110" fill="none" stroke="#32cd32" stroke-width="7"/>
      <path d="M-20 150 Q 30 120, 80 150 T 180 150 T 220 150" fill="none" stroke="#9932cc" stroke-width="5"/>
      <path d="M10 190 Q 50 160, 90 190 T 170 190 T 210 190" fill="none" stroke="#ff1493" stroke-width="6"/>
      <circle cx="30" cy="40" r="5" fill="#ffd700"/>
      <circle cx="170" cy="90" r="7" fill="#00ced1"/>
      <circle cx="70" cy="160" r="6" fill="#ff69b4"/>
    </pattern>
  </defs>
  <rect x="0" y="0" width="200" height="200" fill="url(#randomWavyPattern)"/>
</svg>